# xmcd
#
# Track frame offsets:
#	150
#	13796
#	31641
#	49588
#	70495
#	85115
#	85474
#	100213
#	118226
#	129490
#	148540
#	170105
#	189255
#
# Disc length: 2703
#
# Revision: 1
# Processed by: cddbd v1.5.1PL0 Copyright (c) Steve Scherf et al.
# Submitted via: dBpowerAMP V4.0
# Normalized: r0:TRMNUM
#
DISCID=ae0a8d0d
DTITLE=Daz Dillinger - Game for sale
DYEAR=2001
DGENRE=Rap
TTITLE0=Independent Bubble
TTITLE1=Im A Boss
TTITLE2=They Know
TTITLE3=Makin' Moves
TTITLE4=Balled Out
TTITLE5=What We Came Fo'
TTITLE6=Game 4 Sale
TTITLE7=I Ain't Tryin' To Hear It
TTITLE8=Southern Expozure
TTITLE9=Lovin' It
TTITLE10=Sweet Love
TTITLE11=Geez To Get
TTITLE12=Bonus Track
EXTD=
EXTT0=
EXTT1=
EXTT2=
EXTT3=
EXTT4=
EXTT5=
EXTT6=
EXTT7=
EXTT8=
EXTT9=
EXTT10=
EXTT11=
EXTT12=
PLAYORDER=
